<?xml version="1.0" encoding="UTF-8" standalone="no"?>
<!DOCTYPE svg PUBLIC "-//W3C//DTD SVG 1.1//EN"
 "http://www.w3.org/Graphics/SVG/1.1/DTD/svg11.dtd">
<!-- Generated by graphviz version 15.0.0 (0)
 -->
<!-- Title: vit_fpga Pages: 1 -->
<svg width="543pt" height="777pt"
 viewBox="0.00 0.00 543.00 777.00" xmlns="http://www.w3.org/2000/svg" xmlns:xlink="http://www.w3.org/1999/xlink">
<g id="graph0" class="graph" transform="scale(1 1) rotate(0) translate(4 773.48)">
<title>vit_fpga</title>
<polygon fill="white" stroke="none" points="-4,4 -4,-773.48 538.63,-773.48 538.63,4 -4,4"/>
<text xml:space="preserve" text-anchor="middle" x="267.31" y="-751.08" font-family="Helvetica,sans-Serif" font-size="16.00">MNIST Vision Transformer — FPGA accelerator (Basys 3 / Artix&#45;7)</text>
<g id="clust1" class="cluster">
<title>cluster_top</title>
<polygon fill="white" stroke="#999999" stroke-dasharray="5,2" points="148.9,-587.12 148.9,-734.28 469.9,-734.28 469.9,-587.12 148.9,-587.12"/>
<text xml:space="preserve" text-anchor="middle" x="309.4" y="-720.38" font-family="Helvetica,sans-Serif" font-size="11.00">basys3_top.vhd &#160;(FPGA top wrapper)</text>
</g>
<g id="clust2" class="cluster">
<title>cluster_enc</title>
<polygon fill="white" stroke="#888888" points="48.9,-136.96 48.9,-484.84 517.9,-484.84 517.9,-136.96 48.9,-136.96"/>
<text xml:space="preserve" text-anchor="middle" x="283.4" y="-470.94" font-family="Helvetica,sans-Serif" font-size="11.00">encoder_block.vhd &#160;(transformer encoder)</text>
</g>
<g id="clust3" class="cluster">
<title>cluster_mha</title>
<polygon fill="white" stroke="#aaaaaa" stroke-dasharray="1,5" points="56.9,-309.92 56.9,-455.64 280.9,-455.64 280.9,-309.92 56.9,-309.92"/>
<text xml:space="preserve" text-anchor="middle" x="168.9" y="-442.64" font-family="Helvetica,sans-Serif" font-size="10.00">multi&#45;head self&#45;attention</text>
</g>
<g id="clust5" class="cluster">
<title>cluster_ffn</title>
<polygon fill="white" stroke="#aaaaaa" stroke-dasharray="1,5" points="56.9,-144.96 56.9,-290.92 309.9,-290.92 309.9,-144.96 56.9,-144.96"/>
<text xml:space="preserve" text-anchor="middle" x="183.4" y="-277.92" font-family="Helvetica,sans-Serif" font-size="10.00">feed&#45;forward network</text>
</g>
<!-- host -->
<g id="node1" class="node">
<title>host</title>
<polygon fill="#e8eef5" stroke="#333333" points="131.79,-705.08 0,-705.08 0,-668.6 131.79,-668.6 131.79,-705.08"/>
<text xml:space="preserve" text-anchor="middle" x="65.9" y="-690.14" font-family="Helvetica,sans-Serif" font-size="11.00">Host PC</text>
<text xml:space="preserve" text-anchor="middle" x="65.9" y="-676.94" font-family="Helvetica,sans-Serif" font-size="11.00">UART @ 115,200 baud</text>
</g>
<!-- femem -->
<g id="node5" class="node">
<title>femem</title>
<polygon fill="#f5f5f5" stroke="#333333" points="276.37,-631.6 159.42,-631.6 159.42,-595.12 276.37,-595.12 276.37,-631.6"/>
<text xml:space="preserve" text-anchor="middle" x="217.9" y="-616.66" font-family="Helvetica,sans-Serif" font-size="11.00">frontend_mem.vhd</text>
<text xml:space="preserve" text-anchor="middle" x="217.9" y="-603.46" font-family="Helvetica,sans-Serif" font-size="11.00">784&#45;byte pixel buffer</text>
</g>
<!-- host&#45;&gt;femem -->
<g id="edge5" class="edge">
<title>host&#45;&gt;femem</title>
<path fill="none" stroke="#444444" d="M128.1,-668.21C128.1,-646.33 128.1,-613 128.1,-613 128.1,-613 150.49,-613 150.49,-613"/>
<polygon fill="#444444" stroke="#444444" points="150.49,-615.45 157.49,-613 150.49,-610.55 150.49,-615.45"/>
</g>
<!-- sevseg -->
<g id="node2" class="node">
<title>sevseg</title>
<polygon fill="#eaeaea" stroke="#333333" points="406.17,-36.48 299.62,-36.48 299.62,0 406.17,0 406.17,-36.48"/>
<text xml:space="preserve" text-anchor="middle" x="352.9" y="-21.54" font-family="Helvetica,sans-Serif" font-size="11.00">7&#45;segment display</text>
<text xml:space="preserve" text-anchor="middle" x="352.9" y="-8.34" font-family="Helvetica,sans-Serif" font-size="11.00">(predicted digit)</text>
</g>
<!-- ack -->
<g id="node3" class="node">
<title>ack</title>
<polygon fill="#eaeaea" stroke="#333333" points="534.63,-36.48 431.16,-36.48 431.16,0 534.63,0 534.63,-36.48"/>
<text xml:space="preserve" text-anchor="middle" x="482.9" y="-21.54" font-family="Helvetica,sans-Serif" font-size="11.00">UART result / ack</text>
<text xml:space="preserve" text-anchor="middle" x="482.9" y="-8.34" font-family="Helvetica,sans-Serif" font-size="11.00">(host verification)</text>
</g>
<!-- clk -->
<g id="node4" class="node">
<title>clk</title>
<polygon fill="#f5f5f5" stroke="#333333" points="294.91,-705.08 156.88,-705.08 156.88,-668.6 294.91,-668.6 294.91,-705.08"/>
<text xml:space="preserve" text-anchor="middle" x="225.9" y="-690.14" font-family="Helvetica,sans-Serif" font-size="11.00">clock div + reset FSM</text>
<text xml:space="preserve" text-anchor="middle" x="225.9" y="-676.94" font-family="Helvetica,sans-Serif" font-size="11.00">100 MHz PLL &#45;&gt; 50 MHz</text>
</g>
<!-- clk&#45;&gt;femem -->
<!-- patch -->
<g id="node7" class="node">
<title>patch</title>
<polygon fill="#f5f5f5" stroke="#333333" points="311.38,-548.32 124.41,-548.32 124.41,-511.84 311.38,-511.84 311.38,-548.32"/>
<text xml:space="preserve" text-anchor="middle" x="217.9" y="-533.38" font-family="Helvetica,sans-Serif" font-size="11.00">patch_embed.vhd</text>
<text xml:space="preserve" text-anchor="middle" x="217.9" y="-520.18" font-family="Helvetica,sans-Serif" font-size="11.00">16 patches (7x7) &#45;&gt; 16 x 32 tokens</text>
</g>
<!-- femem&#45;&gt;patch -->
<g id="edge6" class="edge">
<title>femem&#45;&gt;patch</title>
<path fill="none" stroke="#444444" d="M217.9,-594.88C217.9,-594.88 217.9,-557.31 217.9,-557.31"/>
<polygon fill="#444444" stroke="#444444" points="220.35,-557.31 217.9,-550.31 215.45,-557.31 220.35,-557.31"/>
</g>
<!-- wrom -->
<g id="node6" class="node">
<title>wrom</title>
<polygon fill="#f0ead8" stroke="#333333" points="461.58,-705.08 320.21,-705.08 320.21,-668.6 461.58,-668.6 461.58,-705.08"/>
<text xml:space="preserve" text-anchor="middle" x="390.9" y="-690.14" font-family="Helvetica,sans-Serif" font-size="11.00">weights_pkg.vhd</text>
<text xml:space="preserve" text-anchor="middle" x="390.9" y="-676.94" font-family="Helvetica,sans-Serif" font-size="11.00">weight / bias ROM (Q1.7)</text>
</g>
<!-- mha -->
<g id="node9" class="node">
<title>mha</title>
<polygon fill="#f5f5f5" stroke="#333333" points="273.31,-427.64 162.48,-427.64 162.48,-391.64 273.31,-391.64 273.31,-427.64"/>
<text xml:space="preserve" text-anchor="middle" x="217.9" y="-406.34" font-family="Helvetica,sans-Serif" font-size="11.00">mha_controller.vhd</text>
</g>
<!-- wrom&#45;&gt;mha -->
<g id="edge16" class="edge">
<title>wrom&#45;&gt;mha</title>
<path fill="none" stroke="#b08d57" stroke-dasharray="5,2" d="M324.28,-668.5C324.28,-608.21 324.28,-420 324.28,-420 324.28,-420 282.09,-420 282.09,-420"/>
<polygon fill="#b08d57" stroke="#b08d57" points="282.09,-417.55 275.09,-420 282.09,-422.45 282.09,-417.55"/>
<text xml:space="preserve" text-anchor="middle" x="302.15" y="-569.02" font-family="Helvetica,sans-Serif" font-size="9.00">weights</text>
</g>
<!-- ffn -->
<g id="node13" class="node">
<title>ffn</title>
<polygon fill="#f5f5f5" stroke="#333333" points="301.99,-262.92 161.81,-262.92 161.81,-226.44 301.99,-226.44 301.99,-262.92"/>
<text xml:space="preserve" text-anchor="middle" x="231.9" y="-247.98" font-family="Helvetica,sans-Serif" font-size="11.00">ffn.vhd</text>
<text xml:space="preserve" text-anchor="middle" x="231.9" y="-234.78" font-family="Helvetica,sans-Serif" font-size="11.00">FC1 32&#45;&gt;64, FC2 64&#45;&gt;32</text>
</g>
<!-- wrom&#45;&gt;ffn -->
<g id="edge17" class="edge">
<title>wrom&#45;&gt;ffn</title>
<path fill="none" stroke="#b08d57" stroke-dasharray="5,2" d="M328.35,-668.15C328.35,-600.58 328.35,-373 328.35,-373 328.35,-373 285.78,-373 285.78,-373 285.78,-373 285.78,-271.85 285.78,-271.85"/>
<polygon fill="#b08d57" stroke="#b08d57" points="288.23,-271.85 285.78,-264.85 283.33,-271.85 288.23,-271.85"/>
</g>
<!-- cls -->
<g id="node17" class="node">
<title>cls</title>
<polygon fill="#f5f5f5" stroke="#333333" points="530.33,-109.96 305.46,-109.96 305.46,-73.48 530.33,-73.48 530.33,-109.96"/>
<text xml:space="preserve" text-anchor="middle" x="417.9" y="-95.02" font-family="Helvetica,sans-Serif" font-size="11.00">classifier.vhd</text>
<text xml:space="preserve" text-anchor="middle" x="417.9" y="-81.82" font-family="Helvetica,sans-Serif" font-size="11.00">global avg pool &#45;&gt; linear 32&#45;&gt;10 &#45;&gt; argmax</text>
</g>
<!-- wrom&#45;&gt;cls -->
<g id="edge18" class="edge">
<title>wrom&#45;&gt;cls</title>
<path fill="none" stroke="#b08d57" stroke-dasharray="5,2" d="M461.84,-687C491.82,-687 519.94,-687 519.94,-687 519.94,-687 519.94,-118.7 519.94,-118.7"/>
<polygon fill="#b08d57" stroke="#b08d57" points="522.39,-118.7 519.94,-111.7 517.49,-118.7 522.39,-118.7"/>
</g>
<!-- patch&#45;&gt;mha -->
<g id="edge7" class="edge">
<title>patch&#45;&gt;mha</title>
<path fill="none" stroke="#444444" d="M217.9,-511.53C217.9,-511.53 217.9,-436.53 217.9,-436.53"/>
<polygon fill="#444444" stroke="#444444" points="220.35,-436.53 217.9,-429.53 215.45,-436.53 220.35,-436.53"/>
</g>
<!-- ctrl -->
<g id="node8" class="node">
<title>ctrl</title>
<polygon fill="#e8eef5" stroke="#333333" points="427.37,-427.88 332.43,-427.88 332.43,-391.4 427.37,-391.4 427.37,-427.88"/>
<text xml:space="preserve" text-anchor="middle" x="379.9" y="-412.94" font-family="Helvetica,sans-Serif" font-size="11.00">control_unit.vhd</text>
<text xml:space="preserve" text-anchor="middle" x="379.9" y="-399.74" font-family="Helvetica,sans-Serif" font-size="11.00">central FSM</text>
</g>
<!-- ctrl&#45;&gt;mha -->
<g id="edge14" class="edge">
<title>ctrl&#45;&gt;mha</title>
<path fill="none" stroke="#6a8caf" stroke-dasharray="5,2" d="M332.17,-413C332.17,-413 282.07,-413 282.07,-413"/>
<polygon fill="#6a8caf" stroke="#6a8caf" points="282.07,-410.55 275.07,-413 282.07,-415.45 282.07,-410.55"/>
</g>
<!-- ctrl&#45;&gt;ffn -->
<g id="edge15" class="edge">
<title>ctrl&#45;&gt;ffn</title>
<path fill="none" stroke="#6a8caf" stroke-dasharray="5,2" d="M332.07,-406C306.22,-406 279.54,-406 279.54,-406 279.54,-406 279.54,-271.7 279.54,-271.7"/>
<polygon fill="#6a8caf" stroke="#6a8caf" points="281.99,-271.7 279.54,-264.7 277.09,-271.7 281.99,-271.7"/>
</g>
<!-- gemm1 -->
<g id="node10" class="node">
<title>gemm1</title>
<polygon fill="#f0ead8" stroke="#333333" points="159.36,-354.4 64.43,-354.4 64.43,-317.92 159.36,-317.92 159.36,-354.4"/>
<text xml:space="preserve" text-anchor="middle" x="111.9" y="-339.46" font-family="Helvetica,sans-Serif" font-size="11.00">gemm_mm.vhd</text>
<text xml:space="preserve" text-anchor="middle" x="111.9" y="-326.26" font-family="Helvetica,sans-Serif" font-size="11.00">sequential MAC</text>
</g>
<!-- mha&#45;&gt;gemm1 -->
<g id="edge1" class="edge">
<title>mha&#45;&gt;gemm1</title>
<path fill="none" stroke="#888888" d="M173.64,-391.44C173.64,-369.63 173.64,-336 173.64,-336 173.64,-336 167.15,-336 167.15,-336"/>
<polygon fill="#888888" stroke="#888888" points="167.15,-333.9 161.15,-336 167.15,-338.1 167.15,-333.9"/>
</g>
<!-- sm -->
<g id="node11" class="node">
<title>sm</title>
<polygon fill="#f5f5f5" stroke="#333333" points="272.99,-354.4 184.81,-354.4 184.81,-317.92 272.99,-317.92 272.99,-354.4"/>
<text xml:space="preserve" text-anchor="middle" x="228.9" y="-339.46" font-family="Helvetica,sans-Serif" font-size="11.00">softmax.vhd</text>
<text xml:space="preserve" text-anchor="middle" x="228.9" y="-326.26" font-family="Helvetica,sans-Serif" font-size="11.00">exp&#45;LUT ROM</text>
</g>
<!-- mha&#45;&gt;sm -->
<g id="edge2" class="edge">
<title>mha&#45;&gt;sm</title>
<path fill="none" stroke="#888888" d="M228.9,-391.48C228.9,-391.48 228.9,-362.4 228.9,-362.4"/>
<polygon fill="#888888" stroke="#888888" points="231,-362.4 228.9,-356.4 226.8,-362.4 231,-362.4"/>
</g>
<!-- res1 -->
<g id="node12" class="node">
<title>res1</title>
<polygon fill="#f5f5f5" stroke="#333333" points="481.54,-354.4 298.25,-354.4 298.25,-317.92 481.54,-317.92 481.54,-354.4"/>
<text xml:space="preserve" text-anchor="middle" x="389.9" y="-339.46" font-family="Helvetica,sans-Serif" font-size="11.00">residual_add.vhd + layernorm.vhd</text>
<text xml:space="preserve" text-anchor="middle" x="389.9" y="-326.26" font-family="Helvetica,sans-Serif" font-size="11.00">residual 1 + LN 1</text>
</g>
<!-- mha&#45;&gt;res1 -->
<g id="edge8" class="edge">
<title>mha&#45;&gt;res1</title>
<path fill="none" stroke="#444444" d="M273.43,-399C290.47,-399 304.81,-399 304.81,-399 304.81,-399 304.81,-363.19 304.81,-363.19"/>
<polygon fill="#444444" stroke="#444444" points="307.26,-363.19 304.81,-356.19 302.36,-363.19 307.26,-363.19"/>
</g>
<!-- res1&#45;&gt;ffn -->
<g id="edge9" class="edge">
<title>res1&#45;&gt;ffn</title>
<path fill="none" stroke="#444444" d="M297.84,-336C294.17,-336 292.01,-336 292.01,-336 292.01,-336 292.01,-271.67 292.01,-271.67"/>
<polygon fill="#444444" stroke="#444444" points="294.46,-271.67 292.01,-264.67 289.56,-271.67 294.46,-271.67"/>
</g>
<!-- gemm2 -->
<g id="node14" class="node">
<title>gemm2</title>
<polygon fill="#f0ead8" stroke="#333333" points="159.36,-189.44 64.43,-189.44 64.43,-152.96 159.36,-152.96 159.36,-189.44"/>
<text xml:space="preserve" text-anchor="middle" x="111.9" y="-174.5" font-family="Helvetica,sans-Serif" font-size="11.00">gemm_mm.vhd</text>
<text xml:space="preserve" text-anchor="middle" x="111.9" y="-161.3" font-family="Helvetica,sans-Serif" font-size="11.00">sequential MAC</text>
</g>
<!-- ffn&#45;&gt;gemm2 -->
<g id="edge3" class="edge">
<title>ffn&#45;&gt;gemm2</title>
<path fill="none" stroke="#888888" d="M172.96,-226.09C172.96,-204.26 172.96,-171 172.96,-171 172.96,-171 167.22,-171 167.22,-171"/>
<polygon fill="#888888" stroke="#888888" points="167.22,-168.9 161.22,-171 167.22,-173.1 167.22,-168.9"/>
</g>
<!-- gelu -->
<g id="node15" class="node">
<title>gelu</title>
<polygon fill="#f5f5f5" stroke="#333333" points="301.68,-189.44 184.12,-189.44 184.12,-152.96 301.68,-152.96 301.68,-189.44"/>
<text xml:space="preserve" text-anchor="middle" x="242.9" y="-174.5" font-family="Helvetica,sans-Serif" font-size="11.00">psum_activation.vhd</text>
<text xml:space="preserve" text-anchor="middle" x="242.9" y="-161.3" font-family="Helvetica,sans-Serif" font-size="11.00">GELU&#45;LUT ROM</text>
</g>
<!-- ffn&#45;&gt;gelu -->
<g id="edge4" class="edge">
<title>ffn&#45;&gt;gelu</title>
<path fill="none" stroke="#888888" d="M242.9,-226.14C242.9,-226.14 242.9,-197.25 242.9,-197.25"/>
<polygon fill="#888888" stroke="#888888" points="245,-197.25 242.9,-191.25 240.8,-197.25 245,-197.25"/>
</g>
<!-- res2 -->
<g id="node16" class="node">
<title>res2</title>
<polygon fill="#f5f5f5" stroke="#333333" points="509.54,-189.44 326.25,-189.44 326.25,-152.96 509.54,-152.96 509.54,-189.44"/>
<text xml:space="preserve" text-anchor="middle" x="417.9" y="-174.5" font-family="Helvetica,sans-Serif" font-size="11.00">residual_add.vhd + layernorm.vhd</text>
<text xml:space="preserve" text-anchor="middle" x="417.9" y="-161.3" font-family="Helvetica,sans-Serif" font-size="11.00">residual 2 + LN 2</text>
</g>
<!-- ffn&#45;&gt;res2 -->
<g id="edge10" class="edge">
<title>ffn&#45;&gt;res2</title>
<path fill="none" stroke="#444444" d="M302.35,-245C349.85,-245 403.9,-245 403.9,-245 403.9,-245 403.9,-198.34 403.9,-198.34"/>
<polygon fill="#444444" stroke="#444444" points="406.35,-198.34 403.9,-191.34 401.45,-198.34 406.35,-198.34"/>
</g>
<!-- res2&#45;&gt;cls -->
<g id="edge11" class="edge">
<title>res2&#45;&gt;cls</title>
<path fill="none" stroke="#444444" d="M417.9,-152.77C417.9,-152.77 417.9,-118.84 417.9,-118.84"/>
<polygon fill="#444444" stroke="#444444" points="420.35,-118.84 417.9,-111.84 415.45,-118.84 420.35,-118.84"/>
</g>
<!-- cls&#45;&gt;sevseg -->
<g id="edge12" class="edge">
<title>cls&#45;&gt;sevseg</title>
<path fill="none" stroke="#444444" d="M355.81,-73.18C355.81,-73.18 355.81,-45.29 355.81,-45.29"/>
<polygon fill="#444444" stroke="#444444" points="358.26,-45.29 355.81,-38.29 353.36,-45.29 358.26,-45.29"/>
</g>
<!-- cls&#45;&gt;ack -->
<g id="edge13" class="edge">
<title>cls&#45;&gt;ack</title>
<path fill="none" stroke="#444444" d="M480.75,-73.18C480.75,-73.18 480.75,-45.29 480.75,-45.29"/>
<polygon fill="#444444" stroke="#444444" points="483.2,-45.29 480.75,-38.29 478.3,-45.29 483.2,-45.29"/>
</g>
</g>
</svg>
